<!--?xml version="1.0" encoding="utf-8"?-->
<!-- Generator: Adobe Illustrator 18.0.0, SVG Export Plug-In . SVG Version: 6.00 Build 0)  -->

<svg version="1.1" id="_x31_0" xmlns="http://www.w3.org/2000/svg" xmlns:xlink="http://www.w3.org/1999/xlink" x="0px" y="0px" viewBox="0 0 512 512" style="width: 128px; height: 128px; opacity: 1;" xml:space="preserve">
<style type="text/css">
	.st0{fill:#374149;}
</style>
<g>
	<polygon class="st0" points="220.875,157.381 220.656,157.381 220.656,157.381 220.496,157.381 220.496,183.022 291.504,183.022 
		291.504,157.381 	" style="fill: rgb(75, 75, 75);"></polygon>
	<polygon class="st0" points="220.656,204.717 220.656,204.717 220.496,204.717 220.496,230.358 291.504,230.358 291.504,204.717 
		220.875,204.717 	" style="fill: rgb(75, 75, 75);"></polygon>
	<polygon class="st0" points="41.797,157.381 41.582,157.381 41.582,157.381 41.422,157.381 41.422,204.412 41.422,204.557 
		41.422,204.557 41.422,204.717 112.43,204.717 112.43,157.381 	" style="fill: rgb(75, 75, 75);"></polygon>
	<path class="st0" d="M27.614,56.787L0,84.401v369.523v1.129l0,0v0.16h153.848V84.401l-27.614-27.614H27.614z M126.234,275.725
		H27.754h-0.14V112.014h98.621v163.371V275.725z M101.754,367.439c0,7.082-5.738,12.821-12.82,12.821H64.914
		c-7.078,0-12.821-5.738-12.821-12.821c0-7.078,5.742-12.82,12.821-12.82h24.019C96.016,354.619,101.754,360.362,101.754,367.439z" style="fill: rgb(75, 75, 75);"></path>
	<path class="st0" d="M206.691,56.787l-27.613,27.614v369.523v1.129l0,0v0.16h153.847V84.401l-27.613-27.614H206.691z
		 M305.313,275.725h-98.481h-0.141V112.014h98.622v163.371V275.725z M280.832,367.439c0,7.082-5.742,12.821-12.82,12.821h-24.02
		c-7.082,0-12.82-5.738-12.82-12.821c0-7.078,5.738-12.82,12.82-12.82h24.02C275.09,354.619,280.832,360.362,280.832,367.439z" style="fill: rgb(75, 75, 75);"></path>
	<path class="st0" d="M484.386,56.787h-98.621l-27.614,27.614v369.523v1.129l0,0v0.16H512V84.401L484.386,56.787z M484.386,275.725
		H385.91h-0.145v-32.547h26.058v-25.64h-26.058V193.87h26.058v-25.641h-26.058v-56.203v-0.012h98.621v163.371V275.725z
		 M459.906,367.439c0,7.082-5.738,12.821-12.821,12.821h-24.019c-7.078,0-12.82-5.738-12.82-12.821c0-7.078,5.742-12.82,12.82-12.82
		h24.019C454.168,354.619,459.906,360.362,459.906,367.439z" style="fill: rgb(75, 75, 75);"></path>
</g>
</svg>
