<!--?xml version="1.0" encoding="utf-8"?-->
<!-- Generator: Adobe Illustrator 22.0.1, SVG Export Plug-In . SVG Version: 6.00 Build 0)  -->
<svg version="1.1" id="_x31_0" xmlns="http://www.w3.org/2000/svg" xmlns:xlink="http://www.w3.org/1999/xlink" x="0px" y="0px" viewBox="0 0 512 512" style="width: 128px; height: 128px; opacity: 1;" xml:space="preserve">
<style type="text/css">
	.st0{fill:#374149;}
</style>
<g>
	<path class="st0" d="M112.867,369.314H89.57l-2.91-0.016v0.016h-0.144l8.374,66.382c0,3.004,2.442,5.371,5.371,5.371h29.363
		v-19.406h-11.886L112.867,369.314z" style="fill: rgb(75, 75, 75);"></path>
	<path class="st0" d="M345.523,369.314l-4.867,52.347h-11.89v19.145v0.118v0.144h29.367c2.934,0,5.367-2.367,5.367-5.371
		l7.473-59.195l0.906-7.042h-0.02l0.02-0.145H345.523z" style="fill: rgb(75, 75, 75);"></path>
	<path class="st0" d="M153.098,404.748l-11.957,19.121v38.454h176.011v-38.383l-11.957-19.191H153.098z M155.742,427.806v-3.586
		h146.801v3.586H155.742z" style="fill: rgb(75, 75, 75);"></path>
	<path class="st0" d="M300.523,237.814l-17-44.297l-0.32-0.961c-2.793-9.578-0.879-20.031,5.11-28.094
		c5.984-7.984,15.488-12.773,25.465-12.773h2.71l3.278,0.562l3.191,0.714l45.098,17.481c0.321,0.082,0.555,0.242,0.875,0.402
		c0.321,0,0.562,0.156,0.801,0.32c2.793,0.954,5.348,2.391,7.582,4.309c0.957,0.797,1.836,1.594,2.714,2.394l78.223,78.222v-0.078
		V69.076c0-10.617-8.622-19.398-19.317-19.398H19.394C8.699,49.678,0,58.459,0,69.076V334.4c0,6.626,3.351,12.454,8.461,15.965
		c3.11,2.234,6.942,3.434,10.934,3.434h392.485l-103.77-103.77C304.676,246.595,302.125,242.447,300.523,237.814z M126.754,82.326
		c0.078,0.558,0,1.195-0.238,1.758c-0.082,0.238-0.242,0.394-0.242,0.554c-0.157,0.321-0.317,0.641-0.637,0.879L34.961,186.334
		c-2.714,3.114-7.824,1.118-7.824-2.953V82.564c0-2.472,1.996-4.469,4.55-4.469h90.598c0.395,0,0.715,0.078,1.035,0.078
		c0.161,0.082,0.402,0.16,0.641,0.242c0.562,0.238,1.118,0.554,1.598,1.035c0.078,0.16,0.238,0.32,0.398,0.48
		c0.317,0.481,0.559,1.035,0.715,1.758C126.754,81.846,126.754,82.088,126.754,82.326z" style="fill: rgb(75, 75, 75);"></path>
	<path class="st0" d="M362.098,196.037c-0.754-0.742-1.672-1.285-2.656-1.574l-43.84-16.957l-1.23-0.266h-0.582
		c-1.972,0-3.859,0.954-5.054,2.543c-1.199,1.606-1.566,3.633-0.996,5.562l16.859,43.938c0.297,1.019,0.852,1.949,1.598,2.699
		l149.774,149.774L512,345.721L362.098,196.037z" style="fill: rgb(75, 75, 75);"></path>
</g>
</svg>
