<?xml version="1.0" encoding="utf-8"?>
<!-- Generator: Adobe Illustrator 25.3.1, SVG Export Plug-In . SVG Version: 6.00 Build 0)  -->
<svg version="1.1" id="レイヤー_1" xmlns="http://www.w3.org/2000/svg" xmlns:xlink="http://www.w3.org/1999/xlink" x="0px"
	 y="0px" viewBox="0 0 493 780.9" style="enable-background:new 0 0 493 780.9;" xml:space="preserve">
<style type="text/css">
	.st0{fill:#EA5514;stroke:#231815;stroke-miterlimit:10;}
	.st1{fill:none;stroke:#231815;stroke-miterlimit:10;}
	.st2{fill:#231815;}
	.st3{font-family:'KozGoPr6N-Regular-90ms-RKSJ-H';}
	.st4{font-size:12px;}
	.st5{fill:#C30D23;stroke:#231815;stroke-miterlimit:10;}
	.st6{font-size:15.4475px;}
</style>
<rect id="B" x="130.6" y="186.7" class="st0" width="293" height="192"/>
<g id="レイヤー_2_1_">
	<g id="レイヤー_3">
		<rect x="423.5" y="477.7" class="st0" width="69" height="108"/>
		<g id="レイヤー_4">
			<line class="st1" x1="345.5" y1="585.7" x2="306.8" y2="655.6"/>
			<line class="st1" x1="384.8" y1="780.6" x2="306.8" y2="697.7"/>
			<text transform="matrix(1 0 0 1 305.55 238.68)" class="st2 st3 st4">山路を登りながら</text>
			<path class="st1" d="M855.5,257.7"/>
		</g>
		<polygon class="st0" points="206.3,181.3 127.5,181.3 88.1,280 127.5,378.7 206.3,378.7 245.7,280 		"/>
		<polygon class="st0" points="94.3,61.7 88.1,24.6 117.1,0.6 152.4,13.7 158.6,50.8 129.6,74.8 		"/>
	</g>
	<polygon class="st0" points="191.9,374.8 64.3,374.8 0.6,515.2 64.3,655.6 191.9,655.6 255.7,515.2 	"/>
	<rect x="203.6" y="465.7" class="st0" width="69" height="99"/>
</g>
<rect id="A" x="24.5" y="102.7" class="st5" width="223" height="199"/>
<text transform="matrix(0.7645 0 0 1 216.9062 416.9596)" class="st2 st3 st6">山路を登りながら</text>
</svg>
