<svg id="レイヤー_1" data-name="レイヤー 1" xmlns="http://www.w3.org/2000/svg" viewBox="0 0 493.05 780.92"><rect id="B" x="130.55" y="186.68" width="293" height="192" fill="#ea5514" stroke="#231815" stroke-miterlimit="10"/><g id="レイヤー_2" data-name="レイヤー 2"><g id="レイヤー_3" data-name="レイヤー 3"><rect x="423.55" y="477.68" width="69" height="108" fill="#ea5514" stroke="#231815" stroke-miterlimit="10"/><g id="レイヤー_4" data-name="レイヤー 4"><line x1="345.55" y1="585.68" x2="306.77" y2="655.58" fill="none" stroke="#231815" stroke-miterlimit="10"/><line x1="384.77" y1="780.58" x2="306.77" y2="697.68" fill="none" stroke="#231815" stroke-miterlimit="10"/><text transform="translate(305.55 238.68)" font-size="12" fill="#231815" font-family="KozGoPr6N-Regular-90ms-RKSJ-H, Kozuka Gothic Pr6N">山路を登りながら</text><path d="M913,283" transform="translate(-57.45 -25.32)" fill="none" stroke="#231815" stroke-miterlimit="10"/></g><polygon points="206.26 181.29 127.47 181.29 88.07 279.99 127.47 378.68 206.26 378.68 245.66 279.99 206.26 181.29" fill="#ea5514" stroke="#231815" stroke-miterlimit="10"/><polygon points="94.35 61.68 88.07 24.57 117.07 0.57 152.35 13.68 158.64 50.8 129.64 74.8 94.35 61.68" fill="#ea5514" stroke="#231815" stroke-miterlimit="10"/></g><polygon points="191.88 374.79 64.33 374.79 0.55 515.18 64.33 655.58 191.88 655.58 255.66 515.18 191.88 374.79" fill="#ea5514" stroke="#231815" stroke-miterlimit="10"/><rect x="203.55" y="465.68" width="69" height="99" fill="#ea5514" stroke="#231815" stroke-miterlimit="10"/></g><rect id="A" x="24.55" y="102.68" width="223" height="199" fill="#c30d23" stroke="#231815" stroke-miterlimit="10"/><text transform="translate(187.55 461.68)" font-size="12" fill="#231815" font-family="KozGoPr6N-Regular-90ms-RKSJ-H, Kozuka Gothic Pr6N">山路を登りながら</text></svg>