<svg id="レイヤー_1" data-name="レイヤー 1" xmlns="http://www.w3.org/2000/svg" viewBox="0 0 646.35 519.51">
    <defs>
        <style>
            .cls-1 {
                fill: #fff;
            }

            .cls-1,
            .cls-2 {
                stroke: #231815;
                stroke-miterlimit: 10;
            }

            .cls-2 {
                fill: none;
            }
        </style>
    </defs>
    <rect class="cls-1" x="10.29" y="0.5" width="58" height="58" />
    <rect class="cls-1" x="113.29" y="6.5" width="108" height="23" />
    <circle class="cls-1" cx="377.79" cy="68" r="27.5" />
    <ellipse class="cls-1" cx="503.79" cy="69.5" rx="41.5" ry="17" />
    <polygon class="cls-1" points="86.29 145.5 61.66 160.15 36.66 146.15 36.29 117.5 60.91 102.85 85.91 116.85 86.29 145.5" />
    <polygon class="cls-1" points="141.99 152.8 129.69 131.5 141.99 110.2 166.59 110.2 178.88 131.5 166.59 152.8 141.99 152.8" />
    <polygon class="cls-1" points="234.29 159.5 209.04 147.23 207.04 119.23 230.29 103.5 255.54 115.77 257.54 143.77 234.29 159.5" />
    <polygon class="cls-1" points="143.29 277.5 118.08 271.43 98.78 288.76 96.77 262.9 74.32 249.91 98.29 240 103.71 214.64 120.54 234.37 146.34 231.69 132.77 253.8 143.29 277.5" />
    <line class="cls-2" x1="260.29" y1="222.5" x2="429.29" y2="221.5" />
    <line class="cls-2" x1="278.29" y1="270.5" x2="321.29" y2="312.5" />
    <path class="cls-2" d="M190,474c51,43,222,58,222,58l34-44s-122-20-128-21-44-27-57-27-51-3-60-3-83-7-37,54,51,70,70,87,80-10,77-18-78-30-78-30Z" transform="translate(-28.71 -64.5)" />
    <path class="cls-2" d="M108,386c1,.6-10.26,33.31-28,35-12.67,1.21-27.59-13.51-31-29-2.77-12.57,3.78-17.71,11-43,4.13-14.48,14.16-49.6,3-57-6.23-4.13-18.21.94-25,8-10.55,11-9.16,27.36-8,42,6.77,85.15,5,98.64,17,135,10.65,32.42,16,33.81,18,34,18.45,1.77,46.42-70,34-79-4.85-3.53-15.73,2.58-27,11C98.38,399.16,107.28,385.59,108,386Z" transform="translate(-28.71 -64.5)" />
    <path class="cls-2" d="M213,377c39.57-4.17,326.56-33.57,339,5a73.52,73.52,0,0,1,3,26c-2.22,24.3-17.58,33.33-17,43,.78,13,30.4,27.87,137,41" transform="translate(-28.71 -64.5)" />
</svg>