<svg height="448pt" viewBox="-40 0 448 448" width="448pt" xmlns="http://www.w3.org/2000/svg"><path d="m368 448v-388.6875l-59.3125-59.3125h-20.6875v120c0 4.417969-3.582031 8-8 8h-192c-4.417969 0-8-3.582031-8-8v-120h-80v448h40v-224c0-4.417969 3.582031-8 8-8h272c4.417969 0 8 3.582031 8 8v224zm0 0"/><path d="m312 448v-216h-256v216zm-136-200h16c4.417969 0 8 3.582031 8 8s-3.582031 8-8 8h-16c-4.417969 0-8-3.582031-8-8s3.582031-8 8-8zm-96 0h64c4.417969 0 8 3.582031 8 8s-3.582031 8-8 8h-64c-4.417969 0-8-3.582031-8-8s3.582031-8 8-8zm0 32h112c4.417969 0 8 3.582031 8 8s-3.582031 8-8 8h-112c-4.417969 0-8-3.582031-8-8s3.582031-8 8-8zm0 0"/><path d="m224 32h16v48h-16zm0 0"/><path d="m96 0v112h176v-112zm160 96h-48v-80h48zm0 0"/></svg>